<svg id="visual" viewBox="0 0 900 600" width="900" height="600" xmlns="http://www.w3.org/2000/svg" xmlns:xlink="http://www.w3.org/1999/xlink" version="1.1"><path d="M0 103L82 103L82 115L164 115L164 127L245 127L245 121L327 121L327 103L409 103L409 133L491 133L491 109L573 109L573 73L655 73L655 91L736 91L736 145L818 145L818 103L900 103L900 73L900 0L900 0L818 0L818 0L736 0L736 0L655 0L655 0L573 0L573 0L491 0L491 0L409 0L409 0L327 0L327 0L245 0L245 0L164 0L164 0L82 0L82 0L0 0Z" fill="#fa7268"></path><path d="M0 301L82 301L82 355L164 355L164 271L245 271L245 301L327 301L327 229L409 229L409 313L491 313L491 199L573 199L573 337L655 337L655 199L736 199L736 313L818 313L818 205L900 205L900 265L900 71L900 101L818 101L818 143L736 143L736 89L655 89L655 71L573 71L573 107L491 107L491 131L409 131L409 101L327 101L327 119L245 119L245 125L164 125L164 113L82 113L82 101L0 101Z" fill="#ea5e66"></path><path d="M0 457L82 457L82 457L164 457L164 397L245 397L245 475L327 475L327 469L409 469L409 427L491 427L491 481L573 481L573 451L655 451L655 493L736 493L736 463L818 463L818 421L900 421L900 499L900 263L900 203L818 203L818 311L736 311L736 197L655 197L655 335L573 335L573 197L491 197L491 311L409 311L409 227L327 227L327 299L245 299L245 269L164 269L164 353L82 353L82 299L0 299Z" fill="#d84a64"></path><path d="M0 511L82 511L82 505L164 505L164 505L245 505L245 541L327 541L327 541L409 541L409 511L491 511L491 553L573 553L573 511L655 511L655 565L736 565L736 499L818 499L818 553L900 553L900 559L900 497L900 419L818 419L818 461L736 461L736 491L655 491L655 449L573 449L573 479L491 479L491 425L409 425L409 467L327 467L327 473L245 473L245 395L164 395L164 455L82 455L82 455L0 455Z" fill="#c53762"></path><path d="M0 601L82 601L82 601L164 601L164 601L245 601L245 601L327 601L327 601L409 601L409 601L491 601L491 601L573 601L573 601L655 601L655 601L736 601L736 601L818 601L818 601L900 601L900 601L900 557L900 551L818 551L818 497L736 497L736 563L655 563L655 509L573 509L573 551L491 551L491 509L409 509L409 539L327 539L327 539L245 539L245 503L164 503L164 503L82 503L82 509L0 509Z" fill="#b0235f"></path></svg>