<svg id="visual" viewBox="0 0 900 600" width="900" height="600" xmlns="http://www.w3.org/2000/svg" xmlns:xlink="http://www.w3.org/1999/xlink" version="1.1"><path d="M0 247L82 247L82 181L164 181L164 229L245 229L245 127L327 127L327 133L409 133L409 79L491 79L491 271L573 271L573 205L655 205L655 145L736 145L736 139L818 139L818 121L900 121L900 253L900 0L900 0L818 0L818 0L736 0L736 0L655 0L655 0L573 0L573 0L491 0L491 0L409 0L409 0L327 0L327 0L245 0L245 0L164 0L164 0L82 0L82 0L0 0Z" fill="#fa7268"></path><path d="M0 343L82 343L82 307L164 307L164 343L245 343L245 247L327 247L327 241L409 241L409 217L491 217L491 397L573 397L573 307L655 307L655 271L736 271L736 211L818 211L818 175L900 175L900 385L900 251L900 119L818 119L818 137L736 137L736 143L655 143L655 203L573 203L573 269L491 269L491 77L409 77L409 131L327 131L327 125L245 125L245 227L164 227L164 179L82 179L82 245L0 245Z" fill="#ea5e66"></path><path d="M0 439L82 439L82 397L164 397L164 427L245 427L245 301L327 301L327 361L409 361L409 259L491 259L491 457L573 457L573 355L655 355L655 349L736 349L736 295L818 295L818 229L900 229L900 451L900 383L900 173L818 173L818 209L736 209L736 269L655 269L655 305L573 305L573 395L491 395L491 215L409 215L409 239L327 239L327 245L245 245L245 341L164 341L164 305L82 305L82 341L0 341Z" fill="#d84a64"></path><path d="M0 559L82 559L82 535L164 535L164 547L245 547L245 559L327 559L327 523L409 523L409 511L491 511L491 559L573 559L573 523L655 523L655 535L736 535L736 547L818 547L818 529L900 529L900 565L900 449L900 227L818 227L818 293L736 293L736 347L655 347L655 353L573 353L573 455L491 455L491 257L409 257L409 359L327 359L327 299L245 299L245 425L164 425L164 395L82 395L82 437L0 437Z" fill="#c53762"></path><path d="M0 601L82 601L82 601L164 601L164 601L245 601L245 601L327 601L327 601L409 601L409 601L491 601L491 601L573 601L573 601L655 601L655 601L736 601L736 601L818 601L818 601L900 601L900 601L900 563L900 527L818 527L818 545L736 545L736 533L655 533L655 521L573 521L573 557L491 557L491 509L409 509L409 521L327 521L327 557L245 557L245 545L164 545L164 533L82 533L82 557L0 557Z" fill="#b0235f"></path></svg>